<svg width="55" height="55" viewBox="0 0 55 55" fill="none" xmlns="http://www.w3.org/2000/svg">
<path d="M0 15C0 6.71573 6.71573 0 15 0H40C48.2843 0 55 6.71573 55 15V40C55 48.2843 48.2843 55 40 55H15C6.71573 55 0 48.2843 0 40V15Z" fill="url(#paint0_linear_221_4224)"/>
<path d="M17 40.7655V14.8828H27.6106C30.7295 14.8828 33.09 15.4846 34.7025 16.6881C36.315 17.8917 37.1186 19.6556 37.1186 21.976C37.1186 23.2442 36.7951 24.3624 36.1532 25.3278C35.5061 26.2932 34.6067 27.0011 33.4536 27.4515C34.7685 27.7853 35.8038 28.4518 36.5621 29.4638C37.3218 30.4681 37.7062 31.6962 37.7062 33.1573C37.7062 35.6446 36.918 37.5302 35.3405 38.8088C33.7629 40.0874 31.5189 40.7396 28.6019 40.7655H17ZM22.1765 25.2359H27.8229C30.4927 25.1906 31.8321 24.1695 31.8321 22.0717C31.8321 20.8992 31.493 20.0542 30.8162 19.5391C30.1394 19.024 29.0717 18.7652 27.6106 18.7652H22.1765V25.2359ZM22.1765 29.1183V36.8831H28.4453C29.689 36.8831 32.5296 36.2762 32.5296 33.5067C32.5296 30.7373 31.0841 29.1532 28.6472 29.1183H22.1765Z" fill="white"/>
<path d="M20.8828 11H24.7652V17.4707H20.8828V11ZM27.3535 11H31.2359V17.4707H27.3535V11ZM20.8828 38.1768H24.7652V44.6475H20.8828V38.1768ZM27.3535 38.1768H31.2359V44.6475H27.3535V38.1768Z" fill="white"/>
<defs>
<linearGradient id="paint0_linear_221_4224" x1="27.5" y1="0" x2="25.3431" y2="91.6667" gradientUnits="userSpaceOnUse">
<stop offset="0.0231267" stop-color="#FFC107"/>
<stop offset="1" stop-color="white" stop-opacity="0.97"/>
</linearGradient>
</defs>
</svg>
