<?xml version="1.0" encoding="UTF-8"?>
<svg version="1.1" xmlns="http://www.w3.org/2000/svg" width="165" height="165">
<path d="M0 0 C0.88882874 -0.00671722 1.77765747 -0.01343445 2.69342041 -0.02035522 C5.61704176 -0.03927273 8.54043267 -0.04325661 11.46411133 -0.04541016 C13.51044303 -0.05184361 15.55677383 -0.05857237 17.60310364 -0.06558228 C21.88923269 -0.07754031 26.17528124 -0.08126473 30.46142578 -0.08007812 C35.92738846 -0.0798753 41.3928291 -0.10714677 46.85866833 -0.14162254 C51.08572208 -0.16397076 55.31265192 -0.1679132 59.53975868 -0.16685867 C61.55339667 -0.16920389 63.56703865 -0.17796591 65.5806179 -0.19352341 C82.88359222 -0.3146707 95.57991093 1.75255985 108.70239258 14.01318359 C116.85002922 22.80514865 120.16204017 33.70858702 120.14916992 45.43188477 C120.15588715 46.3207135 120.16260437 47.20954224 120.16952515 48.12530518 C120.18844265 51.04892652 120.19242653 53.97231743 120.19458008 56.89599609 C120.20101353 58.9423278 120.2077423 60.98865859 120.2147522 63.0349884 C120.22671023 67.32111745 120.23043465 71.607166 120.22924805 75.89331055 C120.22904522 81.35927322 120.25631669 86.82471386 120.29079247 92.29055309 C120.31314068 96.51760685 120.31708312 100.74453669 120.31602859 104.97164345 C120.31837381 106.98528144 120.32713583 108.99892341 120.34269333 111.01250267 C120.46384062 128.31547699 118.39661007 141.01179569 106.13598633 154.13427734 C97.34402127 162.28191399 86.4405829 165.59392494 74.71728516 165.58105469 C73.82845642 165.58777191 72.93962769 165.59448914 72.02386475 165.60140991 C69.1002434 165.62032742 66.17685249 165.62431129 63.25317383 165.62646484 C61.20684212 165.6328983 59.16051133 165.63962706 57.11418152 165.64663696 C52.82805247 165.658595 48.54200392 165.66231942 44.25585938 165.66113281 C38.7898967 165.66092999 33.32445606 165.68820145 27.85861683 165.72267723 C23.63156307 165.74502545 19.40463323 165.74896789 15.17752647 165.74791336 C13.16388848 165.75025858 11.15024651 165.75902059 9.13666725 165.77457809 C-8.16630706 165.89572539 -20.86262577 163.82849484 -33.98510742 151.56787109 C-42.13274407 142.77590604 -45.44475502 131.87246767 -45.43188477 120.14916992 C-45.4419606 118.81592682 -45.4419606 118.81592682 -45.45223999 117.45574951 C-45.47115749 114.53212816 -45.47514137 111.60873726 -45.47729492 108.68505859 C-45.48372838 106.63872689 -45.49045714 104.59239609 -45.49746704 102.54606628 C-45.50942507 98.25993724 -45.5131495 93.97388869 -45.51196289 89.68774414 C-45.51176006 84.22178147 -45.53903153 78.75634082 -45.57350731 73.29050159 C-45.59585553 69.06344784 -45.59979797 64.836518 -45.59874344 60.60941124 C-45.60108866 58.59577325 -45.60985067 56.58213127 -45.62540817 54.56855202 C-45.74655546 37.2655777 -43.67932492 24.56925899 -31.41870117 11.44677734 C-22.62673612 3.2991407 -11.72329775 -0.01287025 0 0 Z " fill="#00AB94" transform="translate(45.141357421875,-0.29052734375)"/>
<path d="M0 0 C6.64441272 3.93165939 12.4575161 9.65026911 15.2421875 16.96484375 C17.33751144 26.59500807 16.96802898 37.0892835 11.83203125 45.67578125 C9.15036598 49.60167738 6.76295579 52.18846629 2.50390625 54.41796875 C-3.36652723 58.53215066 -4.92585037 66.4839161 -7.10546875 72.98828125 C-7.6013856 74.41155126 -8.09941382 75.83408744 -8.59960938 77.25585938 C-9.81357118 80.72102606 -10.99849298 84.19531206 -12.16796875 87.67578125 C-14.14796875 87.67578125 -16.12796875 87.67578125 -18.16796875 87.67578125 C-18.45406006 86.8036499 -18.74015137 85.93151855 -19.03491211 85.03295898 C-20.12420186 81.76074039 -21.23965349 78.49991442 -22.37329102 75.24291992 C-22.8558666 73.8392831 -23.32814446 72.43205736 -23.78930664 71.02124023 C-26.82177473 61.77303216 -29.77574054 56.11252552 -38.16796875 50.67578125 C-40.2890625 48.234375 -40.2890625 48.234375 -41.60546875 46.11328125 C-42.05792969 45.41074219 -42.51039062 44.70820312 -42.9765625 43.984375 C-47.20760602 35.78586117 -47.82822342 25.57547693 -45.328125 16.69140625 C-40.97344697 7.24893941 -34.00518261 1.10874717 -24.30859375 -2.47265625 C-15.61197737 -4.83069403 -8.12581547 -3.78068741 0 0 Z " fill="#FAFDFD" transform="translate(99.16796875,35.32421875)"/>
<path d="M0 0 C4.62709533 3.33581291 8.67648251 7.15223323 9.6875 12.9375 C10.21818635 19.30573615 9.32717306 23.61979586 5.6875 28.9375 C1.44949786 33.06683542 -2.26414951 34.7360229 -8.125 35.3125 C-14.04205616 35.14471958 -18.60687118 32.68801379 -22.6875 28.5 C-26.18154602 22.9901582 -27.02267517 18.3978032 -26.3125 11.9375 C-24.47358509 6.42075526 -20.87111354 3.30977556 -16.3125 -0.0625 C-11.53581234 -2.45084383 -4.92259935 -1.57894696 0 0 Z " fill="#FBFDFD" transform="translate(92.3125,47.0625)"/>
<path d="M0 0 C0.72684494 -0.0049649 1.45368988 -0.00992981 2.20256042 -0.01504517 C4.6176344 -0.02970269 7.03264268 -0.03647487 9.44775391 -0.04199219 C11.12065636 -0.0477409 12.79355879 -0.05349866 14.46646118 -0.05926514 C17.97878325 -0.06978549 21.49108235 -0.0756213 25.00341797 -0.07910156 C29.50853672 -0.08458706 34.01335334 -0.10861175 38.5183773 -0.13707352 C41.97558483 -0.15567944 45.43271931 -0.16090441 48.88997269 -0.16243744 C50.55099768 -0.16546938 52.21202123 -0.17351609 53.87299728 -0.18662262 C56.19551437 -0.20364012 58.51728996 -0.20181372 60.83984375 -0.1953125 C61.87326653 -0.20913467 61.87326653 -0.20913467 62.92756653 -0.22323608 C65.76963901 -0.19826066 67.62042819 -0.14287666 69.97647095 1.52716064 C71.52158431 3.88040939 71.46242618 5.40706762 71.04931641 8.16113281 C69.96875 9.79312134 69.96875 9.79312134 68.04931641 11.16113281 C64.89941406 11.54208374 64.89941406 11.54208374 60.96337891 11.54931641 C59.88730377 11.55720184 59.88730377 11.55720184 58.78948975 11.56524658 C56.41754398 11.57845327 54.04626902 11.56970658 51.67431641 11.55957031 C50.0266914 11.56159087 48.37906726 11.56450215 46.73144531 11.56826782 C43.27807095 11.57269206 39.82492935 11.56625703 36.37158203 11.55224609 C31.9426928 11.53515399 27.51434895 11.54499466 23.08547974 11.56296349 C19.68314497 11.57379871 16.28093972 11.57035622 12.87860107 11.56258011 C11.24550309 11.56057737 9.61239338 11.56303997 7.97930908 11.57001877 C5.69764003 11.57762915 3.41685689 11.5660359 1.13525391 11.54931641 C-0.8130835 11.54573624 -0.8130835 11.54573624 -2.80078125 11.54208374 C-5.95068359 11.16113281 -5.95068359 11.16113281 -7.90917969 9.86343384 C-9.68265144 6.96475744 -8.65524632 4.33166508 -7.95068359 1.16113281 C-6.0506357 -0.73891508 -2.58594071 0.00417133 0 0 Z " fill="#FAFDFD" transform="translate(52.95068359375,124.8388671875)"/>
<path d="M0 0 C4.31515636 3.01080228 6.82830336 7.37857982 8.71875 12.19921875 C9.46230256 18.67874823 8.22920298 23.66821434 4.71875 29.19921875 C1.00048178 33.23861013 -2.34903006 35.97919647 -7.98828125 36.40234375 C-14.77533881 36.5047899 -19.75252309 36.57452275 -24.8984375 31.65234375 C-29.76103516 26.39422379 -31.74004728 21.31962342 -31.53515625 14.1484375 C-30.86685781 9.01796177 -27.69348779 4.91253634 -24.28125 1.19921875 C-16.77372099 -4.05605156 -7.98557285 -4.51565131 0 0 Z M-26.09375 6.26171875 C-29.66862006 11.06225854 -29.93899447 15.40167103 -29.28125 21.19921875 C-27.6258224 26.79376623 -24.79211721 30.11746858 -19.96484375 33.2890625 C-15.88337703 35.49551667 -11.80761221 35.78014224 -7.28125 35.19921875 C-0.9305305 33.08614029 2.7781272 29.78937093 5.96875 23.88671875 C7.40433641 18.7425341 7.13202492 14.60921552 5.65625 9.57421875 C2.81360689 4.62251784 -0.81251044 1.02213194 -6.28125 -0.80078125 C-15.04485362 -1.63999604 -20.1536879 -0.48605718 -26.09375 6.26171875 Z " fill="#33BBA9" transform="translate(95.28125,46.80078125)"/>
<path d="M0 0 C0.92232422 0.63228516 0.92232422 0.63228516 1.86328125 1.27734375 C3.07564453 2.09912109 3.07564453 2.09912109 4.3125 2.9375 C5.11300781 3.48277344 5.91351563 4.02804688 6.73828125 4.58984375 C10.96008745 7.22209252 15.13718331 7.64895241 20 7 C24.0004862 5.4980381 27.45469773 3.36353485 31 1 C29.60415208 4.37329915 28.07634389 6.04232662 25 8 C19.08580422 9.97139859 12.34586371 9.83780847 6.5 7.75 C4.01048546 6.00733983 1.95394251 4.32970069 0 2 C0 1.34 0 0.68 0 0 Z " fill="#1BB39F" transform="translate(68,74)"/>
<path d="M0 0 C0.92232422 0.63228516 0.92232422 0.63228516 1.86328125 1.27734375 C3.07564453 2.09912109 3.07564453 2.09912109 4.3125 2.9375 C5.11300781 3.48277344 5.91351563 4.02804688 6.73828125 4.58984375 C9.0258143 6.13837326 9.0258143 6.13837326 12 7 C12 7.66 12 8.32 12 9 C6.52386331 7.81887248 3.6905212 6.47335903 0 2 C0 1.34 0 0.68 0 0 Z " fill="#27B8A4" transform="translate(68,74)"/>
</svg>
