<?xml version="1.0" encoding="UTF-8"?>
<svg version="1.1" xmlns="http://www.w3.org/2000/svg" width="165" height="165">
<path d="M0 0 C0.88882874 -0.00671722 1.77765747 -0.01343445 2.69342041 -0.02035522 C5.61704176 -0.03927273 8.54043267 -0.04325661 11.46411133 -0.04541016 C13.51044303 -0.05184361 15.55677383 -0.05857237 17.60310364 -0.06558228 C21.88923269 -0.07754031 26.17528124 -0.08126473 30.46142578 -0.08007812 C35.92738846 -0.0798753 41.3928291 -0.10714677 46.85866833 -0.14162254 C51.08572208 -0.16397076 55.31265192 -0.1679132 59.53975868 -0.16685867 C61.55339667 -0.16920389 63.56703865 -0.17796591 65.5806179 -0.19352341 C82.88359222 -0.3146707 95.57991093 1.75255985 108.70239258 14.01318359 C116.85002922 22.80514865 120.16204017 33.70858702 120.14916992 45.43188477 C120.15588715 46.3207135 120.16260437 47.20954224 120.16952515 48.12530518 C120.18844265 51.04892652 120.19242653 53.97231743 120.19458008 56.89599609 C120.20101353 58.9423278 120.2077423 60.98865859 120.2147522 63.0349884 C120.22671023 67.32111745 120.23043465 71.607166 120.22924805 75.89331055 C120.22904522 81.35927322 120.25631669 86.82471386 120.29079247 92.29055309 C120.31314068 96.51760685 120.31708312 100.74453669 120.31602859 104.97164345 C120.31837381 106.98528144 120.32713583 108.99892341 120.34269333 111.01250267 C120.46384062 128.31547699 118.39661007 141.01179569 106.13598633 154.13427734 C97.34402127 162.28191399 86.4405829 165.59392494 74.71728516 165.58105469 C73.82845642 165.58777191 72.93962769 165.59448914 72.02386475 165.60140991 C69.1002434 165.62032742 66.17685249 165.62431129 63.25317383 165.62646484 C61.20684212 165.6328983 59.16051133 165.63962706 57.11418152 165.64663696 C52.82805247 165.658595 48.54200392 165.66231942 44.25585938 165.66113281 C38.7898967 165.66092999 33.32445606 165.68820145 27.85861683 165.72267723 C23.63156307 165.74502545 19.40463323 165.74896789 15.17752647 165.74791336 C13.16388848 165.75025858 11.15024651 165.75902059 9.13666725 165.77457809 C-8.16630706 165.89572539 -20.86262577 163.82849484 -33.98510742 151.56787109 C-42.13274407 142.77590604 -45.44475502 131.87246767 -45.43188477 120.14916992 C-45.4419606 118.81592682 -45.4419606 118.81592682 -45.45223999 117.45574951 C-45.47115749 114.53212816 -45.47514137 111.60873726 -45.47729492 108.68505859 C-45.48372838 106.63872689 -45.49045714 104.59239609 -45.49746704 102.54606628 C-45.50942507 98.25993724 -45.5131495 93.97388869 -45.51196289 89.68774414 C-45.51176006 84.22178147 -45.53903153 78.75634082 -45.57350731 73.29050159 C-45.59585553 69.06344784 -45.59979797 64.836518 -45.59874344 60.60941124 C-45.60108866 58.59577325 -45.60985067 56.58213127 -45.62540817 54.56855202 C-45.74655546 37.2655777 -43.67932492 24.56925899 -31.41870117 11.44677734 C-22.62673612 3.2991407 -11.72329775 -0.01287025 0 0 Z " fill="#FEFEFE" transform="translate(45.141357421875,-0.29052734375)"/>
<path d="M0 0 C1.59130989 0.00033989 1.59130989 0.00033989 3.21476746 0.00068665 C4.93050713 0.02391243 4.93050713 0.02391243 6.6809082 0.04760742 C8.43912651 0.05397469 8.43912651 0.05397469 10.23286438 0.06047058 C13.98270479 0.07728545 17.73201102 0.11494385 21.48168945 0.15307617 C24.02139524 0.16811933 26.56110944 0.18180837 29.10083008 0.1940918 C35.33213264 0.22719821 41.56312289 0.27742589 47.79418945 0.34057617 C47.81217973 2.10412917 47.82502669 3.86773516 47.83569336 5.63134766 C47.84339752 6.61344711 47.85110168 7.59554657 47.85903931 8.60740662 C47.59679918 19.65981004 40.93232121 30.28547754 33.54418945 38.09057617 C22.38096828 48.64084177 8.63456665 54.12077586 -6.65722656 53.86401367 C-17.56999761 53.35899845 -29.96380337 49.31119173 -38.00268555 41.62182617 C-39.39331055 39.96557617 -39.39331055 39.96557617 -41.20581055 37.34057617 C-33.07673997 27.84445469 -24.11190822 19.15684135 -15.24291992 10.36157227 C-10.9119928 6.19052532 -10.9119928 6.19052532 -6.89933777 1.7297821 C-4.55294365 -0.19497269 -3.01023741 -0.02145062 0 0 Z " fill="#6BBCF7" transform="translate(85.205810546875,83.659423828125)"/>
<path d="M0 0 C16.78091439 1.52553767 28.98164767 6.01174756 40.73828125 18.28515625 C49.14185171 28.37234359 53.18534238 40.35370785 53.0625 53.375 C53.05347656 54.62023437 53.04445312 55.86546875 53.03515625 57.1484375 C53.02355469 58.08945313 53.01195312 59.03046875 53 60 C52.67 60 52.34 60 52 60 C52 57.69 52 55.38 52 53 C34.84 53 17.68 53 0 53 C0 35.51 0 18.02 0 0 Z " fill="#AEA9FC" transform="translate(81,31)"/>
<path d="M0 0 C0.88882874 -0.00671722 1.77765747 -0.01343445 2.69342041 -0.02035522 C5.61704176 -0.03927273 8.54043267 -0.04325661 11.46411133 -0.04541016 C13.51044303 -0.05184361 15.55677383 -0.05857237 17.60310364 -0.06558228 C21.88923269 -0.07754031 26.17528124 -0.08126473 30.46142578 -0.08007812 C35.92738846 -0.0798753 41.3928291 -0.10714677 46.85866833 -0.14162254 C51.08572208 -0.16397076 55.31265192 -0.1679132 59.53975868 -0.16685867 C61.55339667 -0.16920389 63.56703865 -0.17796591 65.5806179 -0.19352341 C82.88359222 -0.3146707 95.57991093 1.75255985 108.70239258 14.01318359 C116.85002922 22.80514865 120.16204017 33.70858702 120.14916992 45.43188477 C120.15588715 46.3207135 120.16260437 47.20954224 120.16952515 48.12530518 C120.18844265 51.04892652 120.19242653 53.97231743 120.19458008 56.89599609 C120.20101353 58.9423278 120.2077423 60.98865859 120.2147522 63.0349884 C120.22671023 67.32111745 120.23043465 71.607166 120.22924805 75.89331055 C120.22904522 81.35927322 120.25631669 86.82471386 120.29079247 92.29055309 C120.31314068 96.51760685 120.31708312 100.74453669 120.31602859 104.97164345 C120.31837381 106.98528144 120.32713583 108.99892341 120.34269333 111.01250267 C120.46384062 128.31547699 118.39661007 141.01179569 106.13598633 154.13427734 C97.34402127 162.28191399 86.4405829 165.59392494 74.71728516 165.58105469 C73.82845642 165.58777191 72.93962769 165.59448914 72.02386475 165.60140991 C69.1002434 165.62032742 66.17685249 165.62431129 63.25317383 165.62646484 C61.20684212 165.6328983 59.16051133 165.63962706 57.11418152 165.64663696 C52.82805247 165.658595 48.54200392 165.66231942 44.25585938 165.66113281 C38.7898967 165.66092999 33.32445606 165.68820145 27.85861683 165.72267723 C23.63156307 165.74502545 19.40463323 165.74896789 15.17752647 165.74791336 C13.16388848 165.75025858 11.15024651 165.75902059 9.13666725 165.77457809 C-8.16630706 165.89572539 -20.86262577 163.82849484 -33.98510742 151.56787109 C-42.13274407 142.77590604 -45.44475502 131.87246767 -45.43188477 120.14916992 C-45.4419606 118.81592682 -45.4419606 118.81592682 -45.45223999 117.45574951 C-45.47115749 114.53212816 -45.47514137 111.60873726 -45.47729492 108.68505859 C-45.48372838 106.63872689 -45.49045714 104.59239609 -45.49746704 102.54606628 C-45.50942507 98.25993724 -45.5131495 93.97388869 -45.51196289 89.68774414 C-45.51176006 84.22178147 -45.53903153 78.75634082 -45.57350731 73.29050159 C-45.59585553 69.06344784 -45.59979797 64.836518 -45.59874344 60.60941124 C-45.60108866 58.59577325 -45.60985067 56.58213127 -45.62540817 54.56855202 C-45.74655546 37.2655777 -43.67932492 24.56925899 -31.41870117 11.44677734 C-22.62673612 3.2991407 -11.72329775 -0.01287025 0 0 Z M-33.50463867 18.94287109 C-39.8140979 27.99295462 -42.27640584 36.01174431 -42.33422852 46.91357422 C-42.34240601 47.7712439 -42.3505835 48.62891357 -42.35900879 49.51257324 C-42.38377244 52.34480104 -42.40035982 55.17697884 -42.41479492 58.00927734 C-42.4201186 58.98139664 -42.42544228 59.95351593 -42.43092728 60.95509338 C-42.45762563 66.10530812 -42.4770071 71.25549896 -42.49145508 76.40576172 C-42.50476332 80.64817004 -42.53256344 84.89009386 -42.57348633 89.13232422 C-42.62306858 94.27343073 -42.64760767 99.41409983 -42.65468216 104.55543518 C-42.66135354 106.50408203 -42.67646681 108.4527207 -42.70057297 110.40122986 C-42.87994468 125.78308725 -41.44263217 138.6942394 -30.14135742 150.29052734 C-20.72278809 158.96734121 -11.4364361 162.44316021 1.26977539 162.43579102 C2.10460953 162.43914963 2.93944366 162.44250824 3.79957581 162.44596863 C6.55365497 162.45545047 9.30767312 162.4574205 12.06176758 162.45849609 C13.98362248 162.46171114 15.90547715 162.4650754 17.82733154 162.46858215 C21.85551521 162.47456689 25.88367744 162.47642278 29.91186523 162.47583008 C35.05741614 162.47572862 40.20282857 162.48936712 45.34834671 162.50660229 C49.31877261 162.51775744 53.28916544 162.51974819 57.25960541 162.51922035 C59.15569281 162.5203957 61.0517812 162.52479231 62.94785309 162.53255272 C65.60864259 162.54242154 68.26913672 162.53944732 70.92993164 162.53344727 C72.08988396 162.54187653 72.08988396 162.54187653 73.27326965 162.55047607 C85.93072481 162.47845605 96.57930292 158.23494851 105.81958008 149.51708984 C117.31969901 136.95948872 117.32528108 122.19555286 117.29223633 106.13427734 C117.29680605 104.18094706 117.30211395 102.22761838 117.30812073 100.27429199 C117.31701663 96.1961409 117.31466832 92.11818601 117.3046875 88.04003906 C117.29319184 82.83860887 117.31343671 77.63785699 117.34260464 72.43651581 C117.3610311 68.40765146 117.36066154 64.37894783 117.35496712 60.35005188 C117.35481475 58.43328397 117.36078858 56.51650457 117.37325859 54.59977722 C117.45815049 39.41734625 115.87691056 26.93074484 105.04614258 15.35302734 C95.65996799 6.5724124 84.60987551 2.98541038 71.95507812 3 C70.67772797 2.98992416 70.67772797 2.98992416 69.37457275 2.97964478 C66.58144163 2.96076982 63.78855212 2.95674595 60.99536133 2.95458984 C59.03774419 2.94815475 57.08012799 2.94142586 55.12251282 2.93441772 C51.02647677 2.92247129 46.93052489 2.9187342 42.83447266 2.91992188 C37.60944644 2.92012494 32.38496487 2.89282374 27.16006756 2.85837746 C23.11834783 2.83604079 19.07675779 2.8320864 15.03498268 2.83314133 C13.10983211 2.83079552 11.18467741 2.82203011 9.25958824 2.80647659 C-7.7211525 2.68212029 -22.07155154 5.11123422 -33.50463867 18.94287109 Z " fill="#020202" transform="translate(45.141357421875,-0.29052734375)"/>
<path d="M0 0 C0 17.16 0 34.32 0 52 C-13.87563468 52 -23.31059484 49.87379495 -34 41 C-35.04087441 39.69832484 -36.05315815 38.37159334 -37 37 C-28.87235593 27.50554492 -19.90902347 18.81975262 -11.04199219 10.02563477 C-6.61414756 5.63808335 -6.61414756 5.63808335 -2.25 1.1875 C-1 0 -1 0 0 0 Z " fill="#4DDAB2" transform="translate(81,84)"/>
<path d="M0 0 C17.16 0 34.32 0 52 0 C45.29872826 8.93502898 45.29872826 8.93502898 42.234375 11.39453125 C37.28544923 15.54414194 32.79087432 20.10029022 28.25 24.6875 C26.99509766 25.94916992 26.99509766 25.94916992 25.71484375 27.23632812 C24.16581876 28.79399998 22.61783197 30.35270556 21.07128906 31.9128418 C19.05259086 33.94700622 17.02772891 35.97484145 15 38 C9.81156853 31.26656893 5.47593339 24.70861308 2.4375 16.75 C2.18661621 16.11384766 1.93573242 15.47769531 1.67724609 14.82226562 C-0.26395015 9.40639767 0 6.23848694 0 0 Z " fill="#F8F39F" transform="translate(28,84)"/>
<path d="M0 0 C13.14582114 1.19507465 26.3130126 3.67615666 35.625 13.875 C36.305625 14.926875 36.305625 14.926875 37 16 C33.68521618 19.31829359 30.36348609 22.62946841 27.03765869 25.93669128 C24.4524899 28.50846419 21.86998867 31.08290892 19.28759766 33.6574707 C17.92291935 35.01708011 16.55735081 36.37579652 15.19091797 37.73364258 C13.21348088 39.69900191 11.23924562 41.66752789 9.265625 43.63671875 C8.34538544 44.54921638 8.34538544 44.54921638 7.40655518 45.48014832 C4.32706508 48.45331946 4.32706508 48.45331946 2 52 C1.34 52 0.68 52 0 52 C0 34.84 0 17.68 0 0 Z " fill="#DA94D8" transform="translate(81,31)"/>
<path d="M0 0 C0 2 0 4 0 6 C-3.12317517 8.23083941 -6.4134946 9.66786942 -10 11 C-6.79239749 7.19364503 -3.59253891 3.45436433 0 0 Z " fill="#71DEAC" transform="translate(71,93)"/>
<path d="M0 0 C1.1875 1.625 1.1875 1.625 2 4 C0.505375 7.93322367 -0.46597843 9.64398562 -4 12 C-2.66666667 8 -1.33333333 4 0 0 Z " fill="#E7F6FB" transform="translate(131,99)"/>
<path d="M0 0 C0.33 0.99 0.66 1.98 1 3 C-0.65 4.65 -2.3 6.3 -4 8 C-4.66 7.34 -5.32 6.68 -6 6 C-4.02 4.02 -2.04 2.04 0 0 Z " fill="#70DEAC" transform="translate(55,109)"/>
</svg>
