<?xml version="1.0" encoding="UTF-8"?>
<svg version="1.1" xmlns="http://www.w3.org/2000/svg" width="260" height="260">
<path d="M0 0 C1.57612931 -0.00599161 3.15225571 -0.0127986 4.7283783 -0.02035522 C8.99312006 -0.03796055 13.25778147 -0.04270836 17.52255607 -0.0439868 C20.19281385 -0.04541234 22.86305146 -0.04968962 25.53330421 -0.05498123 C34.86564038 -0.07346519 44.19791957 -0.08165411 53.53027344 -0.08007812 C62.20194223 -0.07887798 70.87336162 -0.09995962 79.54496735 -0.13156545 C87.01194852 -0.1578018 94.47884861 -0.16844231 101.94587547 -0.16716731 C106.39577091 -0.16665973 110.84544466 -0.17222898 115.29529381 -0.19352341 C119.48563905 -0.21302972 123.67555399 -0.2129466 127.8659153 -0.19849014 C129.39401002 -0.19641603 130.92213257 -0.20101844 132.45018005 -0.21321106 C151.08508444 -0.35213751 166.33555823 5.24240007 179.6965332 18.37255859 C189.44389332 28.78926533 195.5307296 42.57187393 195.56744385 56.88526917 C195.57190053 57.85902973 195.57190053 57.85902973 195.57644725 58.85246223 C195.58509408 61.0200629 195.5866391 63.18760808 195.58813477 65.35522461 C195.59276593 66.91282773 195.59779099 68.47042972 195.60317993 70.0280304 C195.61628057 74.25567752 195.62274478 78.48330878 195.62719059 82.71097302 C195.63012619 85.35624163 195.63423199 88.00150595 195.63869476 90.64677238 C195.65236596 98.93453404 195.66203344 107.22228584 195.66589665 115.51005799 C195.67037116 125.05530582 195.68789237 134.60041002 195.71689725 144.14561421 C195.73857184 151.53692716 195.74860407 158.92819988 195.74993777 166.31954426 C195.75098203 170.72750086 195.75680813 175.13532237 195.77475739 179.54324532 C195.7913374 183.69572515 195.79334586 187.8479698 195.78461838 192.00047112 C195.78385318 193.51608285 195.78812163 195.03170775 195.79807663 196.54728699 C195.91497962 215.47034155 190.90972526 230.38436305 177.6262207 244.15771484 C163.82364986 257.0172529 147.76305549 260.91771081 129.37231445 260.80810547 C127.81662343 260.81354146 126.26093757 260.82067231 124.70526123 260.8293457 C120.52333424 260.8474068 116.34180693 260.84058371 112.15987396 260.82782936 C107.75688196 260.81761146 103.35392127 260.82711919 98.95092773 260.83337402 C91.56072934 260.84062509 84.17069152 260.83112985 76.78051758 260.81201172 C68.27003929 260.79024786 59.75994449 260.79730104 51.24947548 260.81931734 C43.90632691 260.83754419 36.56329292 260.83999427 29.22012901 260.82956266 C24.85024111 260.82336755 20.48053269 260.82238106 16.11065674 260.83570862 C11.99980211 260.84737334 7.88943571 260.83905062 3.77863312 260.81613159 C2.2816066 260.81090059 0.78453806 260.81226036 -0.71247101 260.82118225 C-18.89076061 260.91942595 -34.23537838 255.91915362 -47.6159668 243.31005859 C-60.96171538 229.53809847 -65.04372531 213.19540426 -64.96118164 194.54467773 C-64.96525515 192.98618707 -64.97060138 191.42769931 -64.97711182 189.86921692 C-64.99069979 185.66664419 -64.98552198 181.46429428 -64.97597456 177.26171803 C-64.96833215 172.84443046 -64.97543634 168.42716083 -64.98013306 164.00987244 C-64.98557792 156.59337979 -64.97843304 149.17697702 -64.96411133 141.76049805 C-64.94779329 133.21204165 -64.95307229 124.66380005 -64.96959054 116.11534888 C-64.98324893 108.74937682 -64.9851037 101.38346906 -64.97727454 94.01748842 C-64.97262108 89.62976246 -64.97190842 85.24213711 -64.981884 80.8544178 C-64.99061483 76.72645183 -64.98442139 72.59875996 -64.96720123 68.47082329 C-64.96326853 66.96489286 -64.96431453 65.45893896 -64.97098923 63.95301819 C-65.04737507 44.95250701 -59.98156051 29.60712007 -46.47143555 15.95458984 C-32.79830973 3.38710762 -17.99069594 -0.01366813 0 0 Z " fill="#3598F8" transform="translate(64.572998046875,-0.29052734375)"/>
<path d="M0 0 C0.77988281 0.62648438 1.55976563 1.25296875 2.36328125 1.8984375 C3.61044922 2.90003906 3.61044922 2.90003906 4.8828125 3.921875 C19.73988436 16.56522033 31.00227446 35.30666155 33.36328125 54.8984375 C34.27308573 66.73904956 34.12344583 78.54243845 30.36328125 89.8984375 C30.01136719 90.9709375 29.65945312 92.0434375 29.296875 93.1484375 C21.74641326 114.27976278 7.61318614 130.2686079 -12.51757812 140.1652832 C-31.00655482 148.86533503 -52.99378156 151.34733683 -72.63671875 144.8984375 C-82.09755221 141.46812542 -90.78738024 137.27686078 -98.63671875 130.8984375 C-99.46558594 130.23199219 -100.29445313 129.56554687 -101.1484375 128.87890625 C-113.87625671 118.06123448 -123.46912721 103.15791437 -127.63671875 86.8984375 C-127.84039062 86.14304687 -128.0440625 85.38765625 -128.25390625 84.609375 C-132.83241116 64.35105874 -129.3633491 41.78317532 -118.50146484 24.04443359 C-105.97866936 4.82953588 -88.58858765 -7.82184779 -66.51171875 -14.0390625 C-43.72672181 -18.56775754 -18.7302408 -14.04001684 0 0 Z " fill="#FCFDFE" transform="translate(180.63671875,66.1015625)"/>
<path d="M0 0 C12.87 0 25.74 0 39 0 C39.71942771 3.59713856 40.12784844 6.27528496 40.1328125 9.8359375 C40.13474609 11.18558594 40.13474609 11.18558594 40.13671875 12.5625 C40.13285156 13.490625 40.12898438 14.41875 40.125 15.375 C40.13080078 16.75558594 40.13080078 16.75558594 40.13671875 18.1640625 C40.13542969 19.06640625 40.13414062 19.96875 40.1328125 20.8984375 C40.13168457 21.70974121 40.13055664 22.52104492 40.12939453 23.35693359 C39.97114577 26.58938842 39.45768563 29.79620058 39 33 C26.13 33 13.26 33 0 33 C-0.67147606 28.97114362 -1.12758968 25.7522841 -1.1328125 21.77734375 C-1.13410156 20.82666016 -1.13539062 19.87597656 -1.13671875 18.89648438 C-1.13285156 17.92001953 -1.12898438 16.94355469 -1.125 15.9375 C-1.12886719 14.95716797 -1.13273437 13.97683594 -1.13671875 12.96679688 C-1.13542969 12.01740234 -1.13414063 11.06800781 -1.1328125 10.08984375 C-1.13168457 9.23253662 -1.13055664 8.37522949 -1.12939453 7.49194336 C-1 5 -1 5 0 0 Z " fill="#399BF9" transform="translate(113,116)"/>
<path d="M0 0 C9.24 0 18.48 0 28 0 C29.42042447 5.68169789 30.27587585 9.25566227 30.25 14.8125 C30.25515625 15.91207031 30.2603125 17.01164062 30.265625 18.14453125 C29.92133729 23.14176607 28.8960516 28.07171619 28 33 C18.76 33 9.52 33 0 33 C0 22.11 0 11.22 0 0 Z " fill="#399BF9" transform="translate(168,116)"/>
<path d="M0 0 C9.24 0 18.48 0 28 0 C28 10.89 28 21.78 28 33 C18.76 33 9.52 33 0 33 C-2.27615063 20.48117155 -2.27615063 20.48117155 -2.25 15.9375 C-2.25515625 15.03902344 -2.2603125 14.14054688 -2.265625 13.21484375 C-1.89761198 8.76080376 -0.87648568 4.38242839 0 0 Z " fill="#399BF9" transform="translate(69,116)"/>
<path d="M0 0 C4.03911294 3.49627088 6.15365177 7.57854053 8.5625 12.25 C8.94857422 12.97574219 9.33464844 13.70148438 9.73242188 14.44921875 C16 26.42915513 16 26.42915513 16 32 C5.77 32 -4.46 32 -15 32 C-13.00906979 25.36356596 -11.18258912 19.76434322 -8.0625 13.75 C-7.72798828 13.08226563 -7.39347656 12.41453125 -7.04882812 11.7265625 C-4.95446454 7.61047221 -2.63320825 3.79370495 0 0 Z " fill="#399BF9" transform="translate(132,68)"/>
<path d="M0 0 C10.23 0 20.46 0 31 0 C28.95065061 7.51428111 27.20054523 13.33557151 23.5625 19.9375 C23.18029297 20.66517578 22.79808594 21.39285156 22.40429688 22.14257812 C20.33377436 25.9848211 18.3330773 29.09209885 15 32 C0 9.5974026 0 9.5974026 0 0 Z " fill="#389AF9" transform="translate(117,165)"/>
<path d="M0 0 C7.92 0 15.84 0 24 0 C27.8125 10.125 27.8125 10.125 28.99536133 13.28173828 C30.78216496 17.99846438 32.71922802 22.49601496 35 27 C35 27.66 35 28.32 35 29 C19.70394391 24.33187029 8.53496805 14.23268888 0 1 C0 0.67 0 0.34 0 0 Z " fill="#3B9CF9" transform="translate(76,165)"/>
<path d="M0 0 C7.92 0 15.84 0 24 0 C16.52333127 13.08417028 5.48661257 23.81203503 -9 29 C-9.66 28.67 -10.32 28.34 -11 28 C-10.31164062 26.35064453 -10.31164062 26.35064453 -9.609375 24.66796875 C-8.98945759 23.17453136 -8.36967315 21.68103876 -7.75 20.1875 C-7.44964844 19.46884766 -7.14929688 18.75019531 -6.83984375 18.00976562 C-4.37318257 12.05304129 -2.20966036 6.07656599 0 0 Z " fill="#3A9BF9" transform="translate(165,165)"/>
<path d="M0 0 C-0.28536621 0.70664795 -0.57073242 1.4132959 -0.86474609 2.14135742 C-1.99818297 4.9954246 -3.08749523 7.8623087 -4.1640625 10.73828125 C-4.76347656 12.33833008 -4.76347656 12.33833008 -5.375 13.97070312 C-5.7875 15.07349609 -6.2 16.17628906 -6.625 17.3125 C-7.04523438 18.43462891 -7.46546875 19.55675781 -7.8984375 20.71289062 C-8.93278734 23.47507485 -9.96645973 26.23751275 -11 29 C-18.92 29 -26.84 29 -35 29 C-28.7094189 18.19661072 -14.30422421 0 0 0 Z " fill="#3A9BF9" transform="translate(111,71)"/>
<path d="M0 0 C7.57156274 2.59366298 13.66500015 6.13351957 20 11 C20.62777344 11.46148437 21.25554687 11.92296875 21.90234375 12.3984375 C27.35007864 16.67262405 31.2244591 22.24352595 35 28 C35 28.33 35 28.66 35 29 C27.08 29 19.16 29 11 29 C7.1875 18.3125 7.1875 18.3125 6.00463867 14.9699707 C5.52861206 13.64872192 5.52861206 13.64872192 5.04296875 12.30078125 C4.72352295 11.40528564 4.40407715 10.50979004 4.07495117 9.5871582 C3.03870383 6.91407654 3.03870383 6.91407654 1.37231445 4.29370117 C0 2 0 2 0 0 Z " fill="#399BF9" transform="translate(154,71)"/>
</svg>
